<svg width="69" height="40" viewBox="0 0 69 40" fill="none" xmlns="http://www.w3.org/2000/svg">
<g clip-path="url(#clip0_1_86)">
<g clip-path="url(#clip1_1_86)">
<path d="M68.8949 27.6643L67.0067 17.5283C66.5555 15.1618 65.2931 13.0268 63.4369 11.4911C61.5808 9.95537 59.2471 9.1151 56.838 9.11505H47.5644C47.2624 6.60601 46.0533 4.29399 44.1651 2.61441C42.2768 0.934823 39.8396 0.00358304 37.3125 -0.00393594H13.6319C12.2482 -0.0106012 10.8867 0.343511 9.68166 1.02348C8.4766 1.70345 7.46958 2.68579 6.75993 3.87362C6.61821 4.12577 6.5802 4.42318 6.65396 4.70287C6.72772 4.98255 6.90746 5.22255 7.1551 5.37201C7.40274 5.52147 7.69884 5.56866 7.98068 5.50359C8.26251 5.43852 8.50795 5.2663 8.66501 5.0234C9.17777 4.16483 9.90562 3.45487 10.7767 2.96363C11.6477 2.47239 12.6319 2.21686 13.6319 2.22229H37.3115C39.4421 2.22703 41.4853 3.06927 43.0003 4.56724C44.5154 6.06521 45.3807 8.0988 45.4096 10.2292V32.2337H26.7166C26.4576 30.7813 25.6958 29.4663 24.5647 28.5192C23.4337 27.572 22.0054 27.0529 20.5301 27.0529C19.0548 27.0529 17.6265 27.572 16.4955 28.5192C15.3644 29.4663 14.6026 30.7813 14.3436 32.2337H13.6309C12.6825 32.2344 11.7484 32.0023 10.9107 31.5576C10.073 31.1129 9.35734 30.4693 8.82657 29.6833C8.66083 29.4386 8.40464 29.2697 8.11438 29.2138C7.82413 29.158 7.52356 29.2197 7.27882 29.3855C7.03408 29.5512 6.8652 29.8074 6.80935 30.0977C6.75349 30.3879 6.81522 30.6885 6.98097 30.9332C7.71559 32.0208 8.7061 32.9112 9.86545 33.5263C11.0248 34.1414 12.3175 34.4623 13.6299 34.4609H14.3366C14.5941 35.9168 15.3562 37.2355 16.489 38.1855C17.6218 39.1356 19.0531 39.6563 20.5316 39.6563C22.0101 39.6563 23.4413 39.1356 24.5742 38.1855C25.707 37.2355 26.4691 35.9168 26.7265 34.4609H45.4958C45.7533 35.9168 46.5153 37.2355 47.6482 38.1855C48.781 39.1356 50.2123 39.6563 51.6908 39.6563C53.1693 39.6563 54.6005 39.1356 55.7334 38.1855C56.8662 37.2355 57.6282 35.9168 57.8857 34.4609H63.2917C64.1345 34.4628 64.9672 34.2779 65.7299 33.9195C66.4926 33.561 67.1664 33.0379 67.7027 32.3878C68.2391 31.7378 68.6246 30.9769 68.8316 30.1599C69.0386 29.343 69.0619 28.4903 68.8999 27.6633L68.8949 27.6643ZM20.5088 37.4146C19.4298 37.4146 18.395 36.986 17.632 36.223C16.8691 35.4601 16.4404 34.4253 16.4404 33.3463C16.4404 32.2673 16.8691 31.2325 17.632 30.4695C18.395 29.7066 19.4298 29.2779 20.5088 29.2779C21.5878 29.2779 22.6226 29.7066 23.3855 30.4695C24.1485 31.2325 24.5771 32.2673 24.5771 33.3463C24.5771 34.4253 24.1485 35.4601 23.3855 36.223C22.6226 36.986 21.5878 37.4146 20.5088 37.4146ZM51.666 37.4146C50.6089 37.4142 49.5939 37.0003 48.8379 36.2615C48.0819 35.5227 47.6448 34.5175 47.6199 33.4608C47.6258 33.4233 47.6298 33.3856 47.6318 33.3478V33.0504C47.6898 32.2605 47.9773 31.5047 48.4591 30.876C48.9409 30.2473 49.5959 29.7731 50.3435 29.5117C51.0912 29.2502 51.899 29.213 52.6675 29.4045C53.4361 29.5961 54.1319 30.008 54.6695 30.5897C55.207 31.1715 55.5629 31.8976 55.6933 32.6788C55.8237 33.4601 55.7229 34.2624 55.4034 34.9872C55.0839 35.7119 54.5595 36.3275 53.8948 36.7583C53.2301 37.189 52.4541 37.4161 51.662 37.4117L51.666 37.4146ZM65.9798 30.9719C65.6524 31.368 65.2412 31.6866 64.7759 31.9048C64.3106 32.123 63.8027 32.2353 63.2887 32.2337H57.8768C57.6099 30.7809 56.8428 29.4674 55.7087 28.5211C54.5746 27.5747 53.145 27.0552 51.668 27.0527C50.1908 27.0533 48.7622 27.5804 47.6388 28.5395V11.3403H56.838C58.7275 11.3411 60.5578 12.0001 62.014 13.2041C63.4702 14.4082 64.4614 16.082 64.8171 17.9377L66.7064 28.0786C66.8065 28.5846 66.7932 29.1065 66.6676 29.6067C66.542 30.107 66.3071 30.5732 65.9798 30.9719Z" fill="#F42C37"/>
<path d="M12.9807 12.8627C12.9807 12.7166 12.9519 12.5718 12.8959 12.4368C12.84 12.3017 12.758 12.179 12.6546 12.0757C12.5513 11.9723 12.4286 11.8903 12.2935 11.8344C12.1585 11.7784 12.0137 11.7496 11.8676 11.7496H1.1131C0.823766 11.7583 0.549175 11.8793 0.347569 12.087C0.145964 12.2947 0.0332031 12.5728 0.0332031 12.8622C0.0332031 13.1517 0.145964 13.4298 0.347569 13.6375C0.549175 13.8452 0.823766 13.9662 1.1131 13.9749H11.8686C12.1634 13.9746 12.4461 13.8573 12.6546 13.6488C12.8632 13.4403 12.9804 13.1576 12.9807 12.8627Z" fill="#F42C37"/>
<path d="M12.9807 21.5922C12.9807 21.297 12.8634 21.0139 12.6547 20.8052C12.4459 20.5964 12.1628 20.4791 11.8676 20.4791H3.93801C3.78911 20.4747 3.64082 20.5002 3.50195 20.5541C3.36308 20.608 3.23644 20.6892 3.12954 20.793C3.02264 20.8968 2.93766 21.0209 2.87962 21.1581C2.82159 21.2953 2.79169 21.4428 2.79169 21.5918C2.79169 21.7407 2.82159 21.8882 2.87962 22.0254C2.93766 22.1626 3.02264 22.2867 3.12954 22.3905C3.23644 22.4942 3.36308 22.5755 3.50195 22.6294C3.64082 22.6833 3.78911 22.7088 3.93801 22.7044H11.8676C12.1626 22.7044 12.4456 22.5872 12.6543 22.3787C12.863 22.1702 12.9804 21.8873 12.9807 21.5922Z" fill="#F42C37"/>
</g>
</g>
<defs>
<clipPath id="clip0_1_86">
<rect width="69" height="39.64" fill="white"/>
</clipPath>
<clipPath id="clip1_1_86">
<rect width="69" height="39.6478" fill="white" transform="translate(0 -0.00390625)"/>
</clipPath>
</defs>
</svg>
