<svg width="48" height="49" viewBox="0 0 48 49" fill="none" xmlns="http://www.w3.org/2000/svg">
<g clip-path="url(#clip0_1_98)">
<g clip-path="url(#clip1_1_98)">
<path d="M47.0336 26.4402L46.1681 25.2466C45.968 24.9727 45.8594 24.6427 45.8578 24.3035C45.8562 23.9643 45.9617 23.6332 46.1592 23.3574L47.004 22.153C47.336 21.6837 47.5646 21.1492 47.6745 20.585C47.7844 20.0207 47.7731 19.4395 47.6415 18.88C47.5099 18.3204 47.2608 17.7951 46.9109 17.3391C46.561 16.883 46.1182 16.5064 45.6118 16.2344L44.3184 15.5427C44.0197 15.3836 43.7784 15.1348 43.6286 14.8313C43.4788 14.5278 43.428 14.185 43.4835 13.8511L43.7315 12.3996C43.8276 11.8331 43.8021 11.2527 43.6567 10.6968C43.5113 10.1409 43.2493 9.6223 42.8881 9.17543C42.527 8.72856 42.0748 8.36363 41.5618 8.10487C41.0488 7.84611 40.4866 7.69944 39.9125 7.6746L38.4393 7.61532C38.1011 7.60191 37.7757 7.48207 37.5096 7.27289C37.2435 7.06371 37.0501 6.77586 36.9572 6.45037L36.5304 5.0473C36.3697 4.49473 36.0935 3.98257 35.7201 3.54471C35.3467 3.10685 34.8846 2.75326 34.3643 2.50732C33.844 2.26139 33.2775 2.12873 32.7021 2.1181C32.1268 2.10747 31.5557 2.21913 31.0267 2.44568L29.6741 3.02173C29.3629 3.15207 29.019 3.18292 28.6896 3.11003C28.3602 3.03715 28.0614 2.8641 27.8342 2.61464L26.8462 1.51985C26.4632 1.09107 25.9934 0.748723 25.4679 0.515546C24.9424 0.282368 24.3733 0.163706 23.7984 0.167444C23.2235 0.171183 22.656 0.297237 22.1336 0.537229C21.6112 0.777221 21.1458 1.12565 20.7685 1.55937L19.813 2.67393C19.5887 2.92739 19.2916 3.10544 18.9623 3.18378C18.6331 3.26212 18.2876 3.23693 17.9732 3.11165L16.6096 2.55536C16.1203 2.35479 15.597 2.25014 15.0682 2.24707C14.1798 2.24801 13.3162 2.54042 12.6099 3.07945C11.9036 3.61847 11.3937 4.37434 11.1584 5.23108L10.7701 6.65293C10.6803 6.98013 10.4897 7.27076 10.2255 7.48359C9.96123 7.69641 9.63667 7.82063 9.29784 7.83863L7.83548 7.92854C7.2619 7.96115 6.70182 8.11539 6.19241 8.38101C5.683 8.64663 5.23591 9.01756 4.88081 9.46919C4.52572 9.92081 4.27074 10.4428 4.13281 11.0005C3.99487 11.5582 3.97714 12.1389 4.08077 12.7039L4.34953 14.1465C4.4117 14.4802 4.36727 14.8249 4.22256 15.1319C4.07785 15.4389 3.84018 15.6925 3.54326 15.8569L2.25875 16.5733C1.75644 16.8528 1.31926 17.2359 0.976182 17.6971C0.633105 18.1583 0.391963 18.6872 0.268736 19.2487C0.145508 19.8102 0.143008 20.3915 0.261401 20.954C0.379794 21.5165 0.616377 22.0475 0.955474 22.5116L1.82103 23.6973C2.02116 23.9712 2.12975 24.3013 2.13135 24.6405C2.13294 24.9797 2.02746 25.3108 1.82993 25.5865L0.984128 26.791C0.652267 27.2603 0.423872 27.7948 0.31406 28.359C0.204248 28.9232 0.215524 29.5044 0.347141 30.0639C0.478758 30.6234 0.727714 31.1486 1.07753 31.6047C1.42735 32.0608 1.87005 32.4374 2.37633 32.7096L3.66973 33.4013C3.96857 33.5602 4.20993 33.809 4.35974 34.1125C4.50955 34.4161 4.56025 34.759 4.50466 35.0929L4.25665 36.5444C4.16014 37.1119 4.18569 37.6934 4.33159 38.2503C4.47749 38.8071 4.74039 39.3265 5.10277 39.7738C5.46515 40.2211 5.91869 40.586 6.43318 40.8442C6.94766 41.1024 7.51127 41.248 8.08646 41.2713L9.55968 41.3306C9.89783 41.3438 10.2232 41.4635 10.4893 41.6725C10.7555 41.8815 10.9488 42.1692 11.0418 42.4946L11.4489 43.9075C11.6096 44.4599 11.8857 44.9718 12.259 45.4094C12.6323 45.8471 13.0942 46.2005 13.6143 46.4463C14.1343 46.6922 14.7006 46.8248 15.2758 46.8355C15.8509 46.8461 16.4217 46.7346 16.9505 46.5082L18.3022 45.9311C18.6137 45.8011 18.9577 45.7705 19.2873 45.8436C19.6168 45.9166 19.9157 46.0897 20.143 46.3392L21.1311 47.432C21.5141 47.8613 21.9841 48.2041 22.5099 48.4375C23.0356 48.671 23.6051 48.7898 24.1804 48.7861C24.7556 48.7824 25.3235 48.6562 25.8462 48.4159C26.3689 48.1756 26.8344 47.8267 27.2118 47.3925L28.1751 46.2779C28.3997 46.0245 28.6969 45.8465 29.0264 45.7682C29.3558 45.6899 29.7013 45.715 30.0159 45.8402L31.3785 46.3975C31.8683 46.5976 32.3918 46.7023 32.9209 46.7058C33.8093 46.7051 34.6729 46.4128 35.3791 45.8737C36.0853 45.3346 36.5949 44.5786 36.8297 43.7218L37.2181 42.2989C37.3086 41.972 37.4995 41.6816 37.7638 41.4689C38.0281 41.2562 38.3525 41.1318 38.6913 41.1132L40.1635 41.0243C40.737 40.9917 41.297 40.8375 41.8063 40.5719C42.3156 40.3063 42.7627 39.9355 43.1178 39.484C43.4728 39.0325 43.7278 38.5106 43.8658 37.9531C44.0039 37.3955 44.0217 36.8149 43.9182 36.2499L43.6495 34.8073C43.5873 34.4737 43.6317 34.1289 43.7764 33.8219C43.9212 33.515 44.1588 33.2613 44.4558 33.0969L45.7403 32.3796C46.2433 32.1008 46.6812 31.718 47.0248 31.2568C47.3684 30.7956 47.6099 30.2666 47.7332 29.7048C47.8565 29.143 47.8588 28.5614 47.7399 27.9987C47.6209 27.436 47.3836 26.9051 47.0435 26.4412L47.0336 26.4402ZM45.343 29.1753C45.2948 29.399 45.1993 29.6098 45.063 29.7937C44.9266 29.9776 44.7526 30.1302 44.5526 30.2414L43.2681 30.9577C42.5252 31.3685 41.9302 32.0021 41.5669 32.7693C41.2037 33.5364 41.0905 34.3983 41.2435 35.2332L41.5123 36.6758C41.5543 36.9019 41.5477 37.1343 41.4928 37.3577C41.4378 37.581 41.3359 37.79 41.1937 37.9708C41.0516 38.1516 40.8725 38.2999 40.6684 38.406C40.4644 38.512 40.24 38.5733 40.0104 38.5857L38.548 38.6756C37.7001 38.7232 36.8886 39.036 36.2281 39.5699C35.5676 40.1037 35.0916 40.8317 34.8674 41.6508L34.4791 43.0637C34.3859 43.4064 34.1825 43.7089 33.9004 43.9246C33.6183 44.1403 33.2731 44.2572 32.9179 44.2573C32.7064 44.2575 32.4968 44.2172 32.3004 44.1387L30.9368 43.5815C30.4475 43.3807 29.9243 43.2757 29.3954 43.2722C28.8151 43.2726 28.2416 43.397 27.7134 43.6371C27.1851 43.8772 26.7142 44.2275 26.3324 44.6644L25.367 45.7701C25.2156 45.9461 25.0276 46.0871 24.8162 46.1832C24.6048 46.2793 24.375 46.3281 24.1428 46.3264C23.9156 46.3286 23.6905 46.2818 23.483 46.1892C23.2755 46.0967 23.0904 45.9604 22.9403 45.7898L21.9522 44.695C21.5713 44.2714 21.1057 43.9325 20.5856 43.7001C20.0654 43.4678 19.5023 43.3473 18.9326 43.3463C18.3819 43.3444 17.8366 43.4561 17.3309 43.6744L15.9783 44.2504C15.7778 44.3373 15.5614 44.3817 15.3429 44.3808C14.9932 44.3799 14.6531 44.266 14.3734 44.056C14.0937 43.8461 13.8893 43.5514 13.7906 43.2159L13.3836 41.8029C13.1461 40.9879 12.6595 40.2676 11.992 39.7431C11.3245 39.2185 10.5095 38.9161 9.66146 38.8782L8.18922 38.8189C7.96029 38.8126 7.73552 38.7563 7.53068 38.6539C7.32585 38.5514 7.14591 38.4054 7.00352 38.2261C6.85768 38.0491 6.75194 37.8427 6.6936 37.6209C6.63526 37.3991 6.62571 37.1674 6.66559 36.9416L6.9136 35.4901C7.05586 34.6522 6.93064 33.7909 6.55569 33.0282C6.18075 32.2655 5.57514 31.6403 4.8248 31.2413L3.53239 30.5497C3.3281 30.4433 3.14934 30.2939 3.00843 30.1117C2.86752 29.9295 2.76783 29.7189 2.71623 29.4944C2.66079 29.2715 2.65525 29.0391 2.7 28.8138C2.74475 28.5885 2.83869 28.3759 2.97511 28.1911L3.82091 26.9867C4.31237 26.2934 4.57305 25.463 4.56595 24.6133C4.55886 23.7636 4.28435 22.9377 3.78139 22.2528L2.91583 21.0671C2.77802 20.8829 2.68249 20.6707 2.63604 20.4454C2.58959 20.2201 2.59335 19.9874 2.64707 19.7638C2.69626 19.5399 2.79278 19.3291 2.93014 19.1455C3.06749 18.962 3.24252 18.81 3.44346 18.6996L4.72797 17.9833C5.47025 17.5715 6.06445 16.937 6.42666 16.1693C6.78887 15.4016 6.90079 14.5396 6.74662 13.7049L6.48774 12.2731C6.44394 12.0474 6.44962 11.8149 6.50437 11.5916C6.55913 11.3683 6.66167 11.1596 6.80491 10.9797C6.94678 10.798 7.1261 10.649 7.3307 10.5428C7.5353 10.4366 7.76037 10.3756 7.99061 10.3642L9.45297 10.2742C10.3014 10.2248 11.1129 9.91034 11.773 9.37515C12.4332 8.83996 12.9087 8.11107 13.1326 7.29123L13.5209 5.86938C13.6139 5.52652 13.8172 5.2238 14.0993 5.00792C14.3815 4.79203 14.7268 4.67497 15.0821 4.67479C15.2936 4.6754 15.5031 4.71596 15.6996 4.79435L17.0632 5.35064C17.5525 5.5512 18.0758 5.65586 18.6046 5.65892C19.1849 5.65858 19.7584 5.53419 20.2867 5.29407C20.8149 5.05396 21.2858 4.70368 21.6676 4.26671L22.633 3.16303C22.7834 2.98959 22.9689 2.85015 23.1774 2.75397C23.3858 2.65779 23.6123 2.60709 23.8419 2.60522C24.0714 2.60335 24.2987 2.65036 24.5087 2.74313C24.7187 2.8359 24.9065 2.9723 25.0597 3.14326L26.0478 4.23608C26.429 4.66094 26.8952 5.00092 27.4163 5.23395C27.9373 5.46699 28.5015 5.58787 29.0723 5.58877C29.623 5.59035 30.1682 5.47869 30.674 5.26072L32.0267 4.68467C32.2272 4.59793 32.4435 4.55385 32.662 4.55523C33.0116 4.55572 33.3516 4.66923 33.6314 4.87883C33.9111 5.08842 34.1156 5.38286 34.2143 5.7182L34.6214 7.13215C34.859 7.94702 35.3457 8.6671 36.0132 9.19143C36.6807 9.71575 37.4955 10.018 38.3435 10.0559L39.8157 10.1162C40.0455 10.1236 40.2711 10.1804 40.477 10.2827C40.683 10.385 40.8645 10.5304 41.0093 10.709C41.1556 10.8857 41.2617 11.0921 41.3202 11.3139C41.3788 11.5357 41.3883 11.7676 41.3482 11.9935L41.0992 13.447C40.9579 14.2848 41.0835 15.1458 41.4584 15.9082C41.8332 16.6707 42.4383 17.296 43.188 17.6957L44.4814 18.3874C44.6838 18.4949 44.861 18.6441 45.0014 18.8252C45.1417 19.0063 45.242 19.2152 45.2956 19.438C45.3493 19.6607 45.355 19.8923 45.3124 20.1175C45.2698 20.3426 45.1799 20.5562 45.0486 20.744L44.2038 21.9484C43.7127 22.6422 43.4523 23.4728 43.4594 24.3227C43.4665 25.1727 43.7407 25.9988 44.2433 26.6843L45.1089 27.87C45.3547 28.2573 45.4388 28.7256 45.343 29.1743V29.1753Z" fill="#F42C37" stroke="white" stroke-width="0.345828"/>
<path d="M27.358 20.7084L22.2793 25.7575L20.6302 24.0975C20.5225 23.9893 20.3946 23.9033 20.2538 23.8445C20.1129 23.7857 19.9619 23.7553 19.8092 23.7549C19.6566 23.7544 19.5054 23.7841 19.3642 23.8421C19.2231 23.9002 19.0947 23.9854 18.9865 24.0931C18.8783 24.2007 18.7923 24.3286 18.7335 24.4694C18.6747 24.6103 18.6443 24.7613 18.6438 24.914C18.6434 25.0666 18.6731 25.2178 18.7311 25.359C18.7891 25.5002 18.8744 25.6285 18.982 25.7367L21.4522 28.2198C21.5597 28.3278 21.6874 28.4135 21.828 28.472C21.9687 28.5304 22.1195 28.5605 22.2718 28.5605C22.4242 28.5605 22.575 28.5304 22.7157 28.472C22.8563 28.4135 22.984 28.3278 23.0915 28.2198L28.9943 22.3545C29.1114 22.2492 29.206 22.1212 29.2721 21.9783C29.3383 21.8353 29.3747 21.6804 29.3791 21.523C29.3836 21.3655 29.3559 21.2088 29.2979 21.0624C29.2399 20.9159 29.1528 20.7828 29.0417 20.6711C28.9307 20.5593 28.7981 20.4714 28.652 20.4125C28.5059 20.3536 28.3493 20.325 28.1918 20.3285C28.0344 20.332 27.8792 20.3675 27.7359 20.4328C27.5926 20.4981 27.464 20.5919 27.358 20.7084Z" fill="#F42C37" stroke="#F42C37" stroke-width="0.296424"/>
<path d="M32.9321 15.5308C27.9988 10.5974 20.0002 10.5974 15.0669 15.5308C10.1335 20.4641 10.1335 28.4627 15.0669 33.396C20.0002 38.3293 27.9988 38.3293 32.9321 33.396C37.8655 28.4627 37.8655 20.4641 32.9321 15.5308Z" stroke="#F42C37" stroke-width="2.07497" stroke-linecap="round" stroke-dasharray="54.34 9.88"/>
</g>
</g>
<defs>
<clipPath id="clip0_1_98">
<rect width="48" height="48.95" fill="white"/>
</clipPath>
<clipPath id="clip1_1_98">
<rect width="48" height="48.9614" fill="white" transform="translate(0 -0.0057373)"/>
</clipPath>
</defs>
</svg>
