<svg width="49" height="40" viewBox="0 0 49 40" fill="none" xmlns="http://www.w3.org/2000/svg">
<g clip-path="url(#clip0_1_112)">
<g clip-path="url(#clip1_1_112)">
<path d="M47.8514 32.7721C48.607 31.8762 49.0148 30.7382 49 29.5662C49.0148 28.3943 48.607 27.2563 47.8514 26.3603C47.0997 25.4435 46.0519 24.8174 44.8884 24.5897V24.4902C44.9597 23.4813 44.699 22.4768 44.146 21.63C43.5931 20.7832 42.7782 20.1406 41.8258 19.8003V17.312C41.8615 15.0316 41.4295 12.7681 40.5565 10.6612C39.6834 8.55423 38.3879 6.64856 36.7497 5.06176C35.1629 3.42362 33.2573 2.12806 31.1503 1.25502C29.0434 0.381973 26.7799 -0.0500218 24.4995 -0.014311C22.2191 -0.0500218 19.9556 0.381973 17.8486 1.25502C15.7417 2.12806 13.836 3.42362 12.2492 5.06176C10.6111 6.64856 9.31553 8.55423 8.44248 10.6612C7.56944 12.7681 7.13744 15.0316 7.17316 17.312V19.5136C6.26344 19.664 5.44353 20.1509 4.87618 20.8777C4.30884 21.6045 4.03555 22.5181 4.11059 23.4371V24.5857C2.94563 24.8126 1.89632 25.4388 1.14358 26.3564C0.388837 27.254 -0.0171654 28.3936 -2.81486e-05 29.5662C-0.0148152 30.7382 0.392921 31.8762 1.14856 32.7721C1.9013 33.6897 2.95061 34.3159 4.11557 34.5428V35.6914C4.10471 36.2337 4.20509 36.7726 4.41051 37.2746C4.61593 37.7767 4.92203 38.2314 5.30994 38.6106C5.67409 38.992 6.11251 39.2947 6.59814 39.5001C7.08378 39.7055 7.60635 39.8093 8.13363 39.805H10.2387C10.766 39.8093 11.2885 39.7055 11.7742 39.5001C12.2598 39.2947 12.6982 38.992 13.0624 38.6106C13.4503 38.2314 13.7564 37.7767 13.9618 37.2746C14.1672 36.7726 14.2676 36.2337 14.2568 35.6914V23.4411C14.2676 22.8987 14.1672 22.3599 13.9618 21.8578C13.7564 21.3558 13.4503 20.9011 13.0624 20.5219C12.6982 20.1405 12.2598 19.8378 11.7742 19.6324C11.2885 19.427 10.766 19.3232 10.2387 19.3275H9.18766V17.318C9.15864 15.3035 9.54277 13.3044 10.3164 11.4441C11.0899 9.58388 12.2366 7.90188 13.6855 6.50197C15.0851 5.05333 16.7668 3.90685 18.6267 3.13327C20.4866 2.35969 22.4853 1.97542 24.4995 2.00417C26.5138 1.97529 28.5127 2.35949 30.3728 3.13307C32.2329 3.90665 33.9147 5.0532 35.3145 6.50197C36.7631 7.90165 37.9096 9.58332 38.6832 11.4432C39.4568 13.3031 39.841 15.3018 39.8123 17.316V19.3255C39.1403 19.316 38.4738 19.4473 37.8557 19.7109C37.2375 19.9746 36.6814 20.3647 36.2232 20.8563C35.7456 21.3327 35.3682 21.8999 35.1135 22.5246C34.8588 23.1492 34.7319 23.8186 34.7402 24.4932V34.6373C34.7319 35.3119 34.8588 35.9812 35.1135 36.6059C35.3682 37.2306 35.7456 37.7978 36.2232 38.2742C36.6814 38.7659 37.2374 39.1563 37.8556 39.4201C38.4737 39.6839 39.1403 39.8154 39.8123 39.806C40.4842 39.8155 41.1507 39.6842 41.7689 39.4206C42.387 39.1569 42.9431 38.7667 43.4014 38.2752C43.879 37.7988 44.2563 37.2315 44.5111 36.6069C44.7658 35.9822 44.8927 35.3129 44.8844 34.6383V34.5388C46.0488 34.313 47.098 33.6882 47.8514 32.7721ZM4.11557 32.4377C3.48218 32.2846 2.92338 31.9123 2.53811 31.3868C2.15283 30.8613 1.96593 30.2163 2.01049 29.5662C1.96593 28.9161 2.15283 28.2712 2.53811 27.7457C2.92338 27.2201 3.48218 26.8479 4.11557 26.6948V32.4377ZM12.2502 23.4421V35.6924C12.2562 35.9623 12.2036 36.2303 12.0963 36.4781C11.9889 36.7258 11.8292 36.9474 11.6282 37.1276C11.258 37.4922 10.7603 37.6982 10.2407 37.7019H8.13462C7.61505 37.6982 7.11736 37.4922 6.74716 37.1276C6.54611 36.9474 6.38643 36.7258 6.27905 36.4781C6.17168 36.2303 6.11916 35.9623 6.1251 35.6924V23.4411C6.11916 23.1712 6.17168 22.9031 6.27905 22.6554C6.38643 22.4077 6.54611 22.1861 6.74716 22.0059C7.11736 21.6413 7.61505 21.4353 8.13462 21.4316H10.2397C10.7593 21.4353 11.257 21.6413 11.6272 22.0059C11.8284 22.186 11.9883 22.4075 12.0958 22.6553C12.2034 22.903 12.256 23.1721 12.2502 23.4421ZM42.8748 34.6393C42.8799 35.0371 42.8065 35.4321 42.6588 35.8015C42.511 36.1709 42.2919 36.5076 42.0139 36.7922C41.7322 37.0909 41.3903 37.3264 41.0107 37.483C40.6312 37.6397 40.2227 37.714 39.8123 37.7009C39.4019 37.714 38.9934 37.6397 38.6139 37.483C38.2343 37.3264 37.8924 37.0909 37.6107 36.7922C37.3327 36.5076 37.1135 36.1709 36.9658 35.8015C36.8181 35.4321 36.7446 35.0371 36.7497 34.6393V24.4941C36.7446 24.0963 36.8181 23.7014 36.9658 23.332C37.1135 22.9626 37.3327 22.6259 37.6107 22.3413C37.8923 22.0424 38.2342 21.8067 38.6137 21.6499C38.9933 21.4931 39.4018 21.4186 39.8123 21.4316C40.2227 21.4185 40.6312 21.4928 41.0107 21.6494C41.3903 21.8061 41.7322 22.0416 42.0139 22.3403C42.2919 22.6249 42.511 22.9616 42.6588 23.331C42.8065 23.7004 42.8799 24.0953 42.8748 24.4932V34.6393ZM44.8884 32.4377V26.6958C45.5217 26.8489 46.0805 27.2211 46.4658 27.7467C46.8511 28.2722 47.038 28.9171 46.9934 29.5672C47.0377 30.2172 46.8507 30.8618 46.4655 31.3872C46.0802 31.9125 45.5216 32.2846 44.8884 32.4377Z" fill="#F42C37"/>
<path d="M30.6274 6.62647C28.6799 5.67049 26.5264 5.21015 24.3582 5.2863C22.19 5.36246 20.0741 5.97276 18.1985 7.06302" stroke="#F42C37" stroke-width="2.19067" stroke-linecap="round"/>
</g>
</g>
<defs>
<clipPath id="clip0_1_112">
<rect width="49" height="39.8" fill="white"/>
</clipPath>
<clipPath id="clip1_1_112">
<rect width="49" height="39.8123" fill="white" transform="translate(0 -0.00610352)"/>
</clipPath>
</defs>
</svg>
