<svg width="44" height="41" viewBox="0 0 44 41" fill="none" xmlns="http://www.w3.org/2000/svg">
<g clip-path="url(#clip0_1_122)">
<g clip-path="url(#clip1_1_122)">
<path d="M6.34666 35.4848C6.19465 35.4827 6.04944 35.4214 5.94194 35.3139C5.83443 35.2064 5.77313 35.0612 5.77106 34.9092V27.3254C5.77106 27.1726 5.83175 27.026 5.9398 26.918C6.04784 26.8099 6.19437 26.7492 6.34716 26.7492C6.49996 26.7492 6.64649 26.8099 6.75453 26.918C6.86257 27.026 6.92327 27.1726 6.92327 27.3254V34.8612C6.93137 34.9411 6.92238 35.0218 6.89692 35.098C6.87145 35.1742 6.83008 35.244 6.77556 35.303C6.72104 35.362 6.6546 35.4087 6.58066 35.44C6.50671 35.4714 6.42695 35.4866 6.34666 35.4848ZM39.7129 36.9658V32.6757C39.7108 32.5237 39.6495 32.3785 39.542 32.271C39.4345 32.1635 39.2893 32.1022 39.1373 32.1001C38.988 32.1104 38.8475 32.1743 38.7417 32.2801C38.6359 32.3859 38.572 32.5264 38.5617 32.6757V36.9658C38.5629 37.2498 38.5078 37.5313 38.3997 37.794C38.2915 38.0567 38.1324 38.2953 37.9315 38.4962C37.7307 38.697 37.492 38.8561 37.2294 38.9643C36.9667 39.0724 36.6852 39.1275 36.4012 39.1263H3.75943C3.47537 39.1275 3.19389 39.0724 2.93123 38.9643C2.66856 38.8561 2.42991 38.697 2.22905 38.4962C2.02819 38.2953 1.86909 38.0567 1.76094 37.794C1.65278 37.5313 1.59771 37.2498 1.5989 36.9658V12.3885C1.59784 12.1046 1.65301 11.8232 1.76123 11.5606C1.86944 11.2981 2.02856 11.0596 2.22941 10.8588C2.43026 10.6581 2.66886 10.499 2.93146 10.391C3.19406 10.2829 3.47546 10.2278 3.75943 10.229H36.4002C36.6842 10.2278 36.9657 10.2829 37.2284 10.391C37.491 10.4992 37.7297 10.6583 37.9305 10.8592C38.1314 11.06 38.2905 11.2987 38.3987 11.5613C38.5068 11.824 38.5619 12.1055 38.5607 12.3895V16.3868C38.5628 16.5388 38.6241 16.684 38.7316 16.7915C38.8391 16.899 38.9843 16.9604 39.1363 16.9624C39.2856 16.9522 39.4261 16.8882 39.5319 16.7824C39.6377 16.6766 39.7016 16.5361 39.7119 16.3868V12.3895C39.7093 11.4993 39.3545 10.6463 38.725 10.0168C38.0955 9.38728 37.2424 9.03246 36.3522 9.02983H3.75943C2.86936 9.03246 2.01649 9.38714 1.38702 10.0164C0.75755 10.6457 0.402619 11.4985 0.399719 12.3885V37.0138C0.402355 37.904 0.75717 38.757 1.38667 39.3865C2.01616 40.016 2.86919 40.3708 3.75943 40.3735H36.4002C37.2882 40.3513 38.1323 39.9821 38.7515 39.3452C39.3707 38.7082 39.7158 37.8541 39.7129 36.9658ZM43.6003 25.3007V24.0016C43.595 22.7046 43.0774 21.4621 42.1603 20.545C41.2431 19.6278 40.0007 19.1102 38.7036 19.105H29.4399C28.1429 19.1102 26.9004 19.6278 25.9833 20.545C25.0661 21.4621 24.5485 22.7046 24.5433 24.0016V25.3007C24.5485 26.5978 25.0661 27.8402 25.9833 28.7574C26.9004 29.6745 28.1429 30.1921 29.4399 30.1974H38.7036C40.0007 30.1921 41.2431 29.6745 42.1603 28.7574C43.0774 27.8402 43.595 26.5978 43.6003 25.3007ZM38.7036 20.3041C39.6817 20.3122 40.6175 20.7044 41.3092 21.3961C42.0008 22.0877 42.393 23.0235 42.4011 24.0016V25.3007C42.393 26.2789 42.0008 27.2146 41.3092 27.9063C40.6175 28.598 39.6817 28.9901 38.7036 28.9982H29.4399C28.4618 28.9901 27.526 28.598 26.8344 27.9063C26.1427 27.2146 25.7505 26.2789 25.7424 25.3007V24.0016C25.7505 23.0235 26.1427 22.0877 26.8344 21.3961C27.526 20.7044 28.4618 20.3122 29.4399 20.3041H38.7036ZM35.3929 6.96524C35.5383 6.89404 35.6499 6.76858 35.7038 6.61588C35.7576 6.46318 35.7493 6.29544 35.6807 6.14879L33.1364 0.724489C33.1058 0.654297 33.0596 0.591945 33.0015 0.542103C32.9434 0.492262 32.8747 0.456224 32.8006 0.436686C32.6443 0.38878 32.4773 0.38878 32.321 0.436686L21.1366 5.71709C21.0036 5.79442 20.9047 5.91902 20.8595 6.06605C20.8143 6.21307 20.8261 6.37174 20.8927 6.51041C20.9593 6.64908 21.0756 6.75758 21.2186 6.81428C21.3616 6.87098 21.5207 6.87171 21.6642 6.81634L32.272 1.81974L34.5764 6.7164C34.6292 6.81213 34.7051 6.89306 34.7973 6.95174C34.8895 7.01041 34.995 7.04495 35.1041 7.05218C35.248 7.0132 35.3439 7.0132 35.3929 6.96524Z" fill="#F42C37" stroke="#F42C37" stroke-width="0.799455"/>
<path d="M39.1403 24.4913H36.8759H39.1403Z" fill="#F42C37"/>
<path d="M39.1403 24.4913H36.8759" stroke="#F42C37" stroke-width="2.59823" stroke-linecap="round"/>
</g>
</g>
<defs>
<clipPath id="clip0_1_122">
<rect width="44" height="40.77" fill="white"/>
</clipPath>
<clipPath id="clip1_1_122">
<rect width="44" height="40.7762" fill="white" transform="translate(0 -0.00305176)"/>
</clipPath>
</defs>
</svg>
