<svg width="34" height="34" viewBox="0 0 34 34" fill="none" xmlns="http://www.w3.org/2000/svg">
<g clip-path="url(#clip0_1_427)">
<path d="M6.39494 6.39508C12.2524 0.537578 21.7499 0.537578 27.6074 6.39508C33.4649 12.2526 33.4649 21.7488 27.6074 27.6076C25.3978 29.8172 22.5534 31.2818 19.4713 31.7969C16.3891 32.3121 13.2231 31.8522 10.4149 30.4813L3.14744 31.4001C3.07308 31.4095 2.99754 31.4018 2.92664 31.3774C2.85574 31.3531 2.79137 31.3128 2.73849 31.2597C2.6856 31.2065 2.64561 31.142 2.62159 31.071C2.59757 31 2.59017 30.9244 2.59994 30.8501L3.53494 23.6151C2.15609 20.8052 1.69061 17.6344 2.20368 14.5468C2.71676 11.4591 4.18269 8.60928 6.39619 6.39633L6.39494 6.39508ZM10.9074 27.6988L11.2824 27.8963C13.606 29.1145 16.2581 29.5584 18.8517 29.1631C21.4454 28.7677 23.8448 27.554 25.6999 25.6988C30.5037 20.8951 30.5037 13.1063 25.6999 8.30133C20.8962 3.49758 13.1062 3.49758 8.30244 8.30133C6.44399 10.16 5.22936 12.5648 4.83641 15.1636C4.44346 17.7624 4.89281 20.4188 6.11869 22.7438L6.31869 23.1226L5.68119 28.0501C5.6763 28.0872 5.68001 28.125 5.69202 28.1605C5.70403 28.196 5.72402 28.2283 5.75046 28.2549C5.77691 28.2814 5.80909 28.3016 5.84454 28.3138C5.87999 28.3259 5.91776 28.3298 5.95494 28.3251L10.9074 27.6988ZM19.0749 18.9451L17.9087 20.4001C16.1036 19.3394 14.5991 17.8358 13.5374 16.0313L14.9949 14.8651C15.166 14.7286 15.287 14.5392 15.339 14.3266C15.391 14.114 15.3711 13.8902 15.2824 13.6901L13.9512 10.7001C13.8557 10.4856 13.6872 10.312 13.4757 10.2101C13.2642 10.1082 13.0234 10.0848 12.7962 10.1438C11.9531 10.3615 11.1102 10.5798 10.2674 10.7988C10.0315 10.8605 9.82645 11.0065 9.691 11.2092C9.55554 11.4119 9.49913 11.6573 9.53244 11.8988C9.97624 15.0587 11.4367 17.9882 13.693 20.2445C15.9493 22.5008 18.8788 23.9613 22.0387 24.4051C22.2801 24.4384 22.5253 24.3822 22.728 24.247C22.9307 24.1118 23.0768 23.907 23.1387 23.6713L23.7949 21.1426C23.8537 20.9155 23.83 20.675 23.7282 20.4638C23.6263 20.2526 23.4529 20.0843 23.2387 19.9888L20.2499 18.6588C20.0499 18.5701 19.826 18.5502 19.6134 18.6022C19.4008 18.6543 19.2115 18.7753 19.0749 18.9463V18.9451Z" fill="white"/>
</g>
<defs>
<clipPath id="clip0_1_427">
<rect width="30" height="30" fill="white" transform="translate(2 2)"/>
</clipPath>
</defs>
</svg>
