<svg width="20" height="19" viewBox="0 0 20 19" fill="none" xmlns="http://www.w3.org/2000/svg">
<path d="M13.0591 9.23057C13.0591 10.0687 12.7657 10.781 12.1791 11.4096C11.5505 11.9963 10.8381 12.2896 10 12.2896C9.16192 12.2896 8.44954 11.9963 7.82097 11.4096C7.2343 10.781 6.94097 10.0687 6.94097 9.23057C6.94097 8.39248 7.2343 7.6801 7.82097 7.05152C8.44954 6.46486 9.16192 6.17152 10 6.17152C10.8381 6.17152 11.5505 6.46486 12.1791 7.05152C12.7657 7.6801 13.0591 8.39248 13.0591 9.23057ZM14.7353 9.23057C14.7353 7.93152 14.2743 6.8001 13.3524 5.87819C12.4305 4.95629 11.2991 4.49533 10 4.49533C8.70097 4.49533 7.56954 4.95629 6.64764 5.87819C5.72573 6.8001 5.26478 7.93152 5.26478 9.23057C5.26478 10.5296 5.72573 11.661 6.64764 12.583C7.56954 13.5049 8.70097 13.9658 10 13.9658C11.2991 13.9658 12.4305 13.5049 13.3524 12.583C14.2743 11.661 14.7353 10.5296 14.7353 9.23057ZM15.9924 4.32771C15.9924 4.03438 15.9086 3.74105 15.6991 3.53152C15.4895 3.322 15.1962 3.23819 14.9029 3.23819C14.6095 3.23819 14.3581 3.322 14.1486 3.53152C13.8972 3.74105 13.8134 4.03438 13.8134 4.32771C13.8134 4.62105 13.8972 4.87248 14.1486 5.082C14.3581 5.33343 14.6095 5.41724 14.9029 5.41724C15.1962 5.41724 15.4895 5.33343 15.6991 5.082C15.9086 4.87248 15.9924 4.62105 15.9924 4.32771ZM10 1.68772H10.9219H12.1791C12.4724 1.68772 12.8495 1.68772 13.3524 1.72962C13.8134 1.72962 14.2324 1.77152 14.5676 1.85533C14.9029 1.89724 15.1962 1.98105 15.4057 2.06486C15.8248 2.23248 16.16 2.442 16.4953 2.73533C16.7886 3.07057 16.9981 3.40581 17.1657 3.82486C17.2495 4.03438 17.3334 4.32771 17.3753 4.66295C17.4591 4.99819 17.501 5.41724 17.501 5.87819C17.5429 6.38105 17.5429 6.75819 17.5429 7.05152V8.30867V9.23057V10.1525V11.4096C17.5429 11.703 17.5429 12.0801 17.501 12.583C17.501 13.0439 17.4591 13.463 17.3753 13.7982C17.3334 14.1334 17.2495 14.4268 17.1657 14.6363C16.9981 15.0553 16.7886 15.3906 16.4953 15.7258C16.16 16.0191 15.8248 16.2287 15.4057 16.3963C15.1962 16.4801 14.9029 16.5639 14.5676 16.6058C14.2324 16.6896 13.8134 16.7315 13.3524 16.7315C12.8495 16.7734 12.4724 16.7734 12.1791 16.7734H10.9219H10H9.07811H7.82097C7.52764 16.7734 7.1505 16.7734 6.64764 16.7315C6.18669 16.7315 5.76764 16.6896 5.4324 16.6058C5.09716 16.5639 4.80383 16.4801 4.5943 16.3963C4.17526 16.2287 3.84002 16.0191 3.50478 15.7258C3.21145 15.3906 3.00192 15.0553 2.8343 14.6363C2.7505 14.4268 2.66669 14.1334 2.62478 13.7982C2.54097 13.463 2.49907 13.0439 2.49907 12.583C2.45716 12.0801 2.45716 11.703 2.45716 11.4096V10.1525V9.23057V8.30867V7.05152C2.45716 6.75819 2.45716 6.38105 2.49907 5.87819C2.49907 5.41724 2.54097 4.99819 2.62478 4.66295C2.66669 4.32771 2.7505 4.03438 2.8343 3.82486C3.00192 3.40581 3.21145 3.07057 3.50478 2.73533C3.84002 2.442 4.17526 2.23248 4.5943 2.06486C4.80383 1.98105 5.09716 1.89724 5.4324 1.85533C5.76764 1.77152 6.18669 1.72962 6.64764 1.72962C7.1505 1.68772 7.52764 1.68772 7.82097 1.68772H9.07811H10ZM19.1772 9.23057C19.1772 7.38676 19.1772 6.12962 19.1353 5.41724C19.0514 3.78295 18.5486 2.4839 17.6686 1.562C16.7467 0.682001 15.4476 0.179144 13.8134 0.0953331C13.101 0.0534286 11.8438 0.0534286 10 0.0534286C8.15621 0.0534286 6.89907 0.0534286 6.18669 0.0953331C4.5524 0.179144 3.25335 0.682001 2.33145 1.562C1.45145 2.4839 0.94859 3.78295 0.864781 5.41724C0.822876 6.12962 0.822876 7.38676 0.822876 9.23057C0.822876 11.0744 0.822876 12.3315 0.864781 13.0439C0.94859 14.6782 1.45145 15.9772 2.33145 16.8991C3.25335 17.7791 4.5524 18.282 6.18669 18.3658C6.89907 18.4077 8.15621 18.4077 10 18.4077C11.8438 18.4077 13.101 18.4077 13.8134 18.3658C15.4476 18.282 16.7467 17.7791 17.6686 16.8991C18.5486 15.9772 19.0514 14.6782 19.1353 13.0439C19.1772 12.3315 19.1772 11.0744 19.1772 9.23057Z" fill="black"/>
</svg>
