<svg width="20" height="18" viewBox="0 0 20 18" fill="none" xmlns="http://www.w3.org/2000/svg">
<path d="M4.97145 6.00375H1.0324V17.8628H4.97145V6.00375ZM5.22288 2.31613C5.22288 1.72946 5.01335 1.2266 4.63621 0.849461C4.21716 0.472319 3.7143 0.262794 3.04383 0.262794C2.37335 0.262794 1.82859 0.472319 1.40954 0.849461C0.990495 1.2266 0.822876 1.72946 0.822876 2.31613C0.822876 2.90279 0.990495 3.40565 1.40954 3.78279C1.78669 4.15994 2.33145 4.36946 3.00192 4.36946C3.6724 4.36946 4.21716 4.15994 4.63621 3.78279C5.05526 3.40565 5.22288 2.90279 5.22288 2.31613ZM19.1772 11.0323C19.1772 9.31422 18.8 7.97327 17.9619 7.05136C17.1238 6.17137 16.0343 5.71041 14.6514 5.71041C14.1486 5.71041 13.6876 5.75232 13.2686 5.87803C12.8914 6.00375 12.5143 6.21327 12.2629 6.42279C11.9695 6.63232 11.7181 6.84184 11.5505 7.05136C11.3829 7.21898 11.2572 7.47041 11.0895 7.72184V6.00375H7.1505L7.1924 6.54851V10.1104C7.1924 12.0799 7.1924 14.678 7.1505 17.8628H11.0895V11.2418C11.0895 10.8228 11.1314 10.4876 11.2153 10.278C11.3829 9.85898 11.6343 9.52375 12.0114 9.23041C12.3467 8.97898 12.7657 8.81137 13.2686 8.81137C13.9391 8.81137 14.4419 9.06279 14.7772 9.52375C15.1124 10.0266 15.2381 10.6552 15.2381 11.4933V17.8628H19.1772V11.0323Z" fill="black"/>
</svg>
