<svg width="20" height="16" viewBox="0 0 20 16" fill="none" xmlns="http://www.w3.org/2000/svg">
<path d="M2.66665 15.3332C2.16248 15.3332 1.73104 15.1538 1.37231 14.7951C1.01359 14.4364 0.833924 14.0046 0.833313 13.4998V2.49984C0.833313 1.99567 1.01298 1.56423 1.37231 1.2055C1.73165 0.846782 2.16309 0.667115 2.66665 0.666504H17.3333C17.8375 0.666504 18.2692 0.84617 18.6286 1.2055C18.9879 1.56484 19.1673 1.99628 19.1666 2.49984V13.4998C19.1666 14.004 18.9873 14.4358 18.6286 14.7951C18.2698 15.1544 17.8381 15.3338 17.3333 15.3332H2.66665ZM9.99998 8.9165L17.3333 4.33317V2.49984L9.99998 7.08317L2.66665 2.49984V4.33317L9.99998 8.9165Z" fill="black"/>
</svg>
