<svg width="20" height="16" viewBox="0 0 20 16" fill="none" xmlns="http://www.w3.org/2000/svg">
<path d="M19.4286 2.40559C18.6743 2.69892 17.9619 2.90845 17.2076 2.99226C18.0457 2.4894 18.6324 1.77702 18.9257 0.855115C18.1295 1.31607 17.3333 1.6094 16.4533 1.77702C15.699 0.980829 14.7352 0.561781 13.6457 0.561781C12.5562 0.561781 11.6343 0.938924 10.88 1.69321C10.1257 2.4475 9.74855 3.3694 9.74855 4.41702C9.74855 4.71035 9.79046 5.00369 9.87427 5.33892C8.28189 5.25512 6.77332 4.83607 5.39046 4.12369C4.0076 3.41131 2.83427 2.4475 1.87046 1.27416C1.53522 1.86083 1.3676 2.53131 1.3676 3.24369C1.3676 3.87226 1.49332 4.50083 1.82855 5.0875C2.12189 5.63226 2.54093 6.09321 3.0857 6.42845C2.45713 6.42845 1.87046 6.26083 1.3257 5.9675V6.0094C1.3257 6.93131 1.61903 7.7694 2.2057 8.48178C2.79236 9.15226 3.54665 9.61321 4.42665 9.78083C4.09141 9.90654 3.75617 9.94845 3.42093 9.94845C3.21141 9.94845 2.95998 9.90654 2.66665 9.86464C2.91808 10.6608 3.37903 11.2894 4.04951 11.7923C4.71998 12.2951 5.47427 12.5465 6.31236 12.5465C4.8876 13.6361 3.29522 14.2227 1.49332 14.2227C1.15808 14.2227 0.864744 14.1808 0.571411 14.1389C2.37332 15.3123 4.34284 15.8989 6.52189 15.8989C7.86284 15.8989 9.16189 15.6894 10.3771 15.2284C11.5924 14.8094 12.5981 14.2227 13.4781 13.5104C14.3162 12.7561 15.0705 11.918 15.6571 10.9542C16.2857 10.0323 16.7466 9.02654 17.04 7.97892C17.3752 6.97321 17.5009 5.92559 17.5009 4.87797V4.37512C18.2552 3.83035 18.8838 3.15988 19.4286 2.40559Z" fill="black"/>
</svg>
